<svg xmlns="http://www.w3.org/2000/svg" width="16" height="16" viewBox="0 0 16 16" shape-rendering="crispEdges">
<title>zip icon</title>
<rect x="3" y="1" width="8" height="1" fill="#FFFFFF"/>
<rect x="2" y="2" width="2" height="1" fill="#FFFFFF"/>
<rect x="10" y="2" width="2" height="1" fill="#FFFFFF"/>
<rect x="2" y="3" width="2" height="1" fill="#FFFFFF"/>
<rect x="6" y="3" width="2" height="1" fill="#FFFFFF"/>
<rect x="10" y="3" width="3" height="1" fill="#FFFFFF"/>
<rect x="2" y="4" width="2" height="1" fill="#FFFFFF"/>
<rect x="7" y="4" width="2" height="1" fill="#FFFFFF"/>
<rect x="10" y="4" width="4" height="1" fill="#FFFFFF"/>
<rect x="2" y="5" width="2" height="1" fill="#FFFFFF"/>
<rect x="6" y="5" width="2" height="1" fill="#FFFFFF"/>
<rect x="13" y="5" width="2" height="1" fill="#FFFFFF"/>
<rect x="2" y="6" width="2" height="1" fill="#FFFFFF"/>
<rect x="7" y="6" width="2" height="1" fill="#FFFFFF"/>
<rect x="13" y="6" width="2" height="1" fill="#FFFFFF"/>
<rect x="2" y="7" width="2" height="1" fill="#FFFFFF"/>
<rect x="6" y="7" width="2" height="1" fill="#FFFFFF"/>
<rect x="13" y="7" width="2" height="1" fill="#FFFFFF"/>
<rect x="2" y="8" width="2" height="1" fill="#FFFFFF"/>
<rect x="7" y="8" width="2" height="1" fill="#FFFFFF"/>
<rect x="13" y="8" width="2" height="1" fill="#FFFFFF"/>
<rect x="2" y="9" width="2" height="1" fill="#FFFFFF"/>
<rect x="6" y="9" width="2" height="1" fill="#FFFFFF"/>
<rect x="13" y="9" width="2" height="1" fill="#FFFFFF"/>
<rect x="2" y="10" width="2" height="1" fill="#FFFFFF"/>
<rect x="5" y="10" width="4" height="1" fill="#FFFFFF"/>
<rect x="13" y="10" width="2" height="1" fill="#FFFFFF"/>
<rect x="2" y="11" width="2" height="1" fill="#FFFFFF"/>
<rect x="5" y="11" width="1" height="1" fill="#FFFFFF"/>
<rect x="8" y="11" width="1" height="1" fill="#FFFFFF"/>
<rect x="13" y="11" width="2" height="1" fill="#FFFFFF"/>
<rect x="2" y="12" width="2" height="1" fill="#FFFFFF"/>
<rect x="5" y="12" width="4" height="1" fill="#FFFFFF"/>
<rect x="13" y="12" width="2" height="1" fill="#FFFFFF"/>
<rect x="2" y="13" width="2" height="1" fill="#FFFFFF"/>
<rect x="13" y="13" width="2" height="1" fill="#FFFFFF"/>
<rect x="3" y="14" width="11" height="1" fill="#FFFFFF"/>
</svg>
