<svg xmlns="http://www.w3.org/2000/svg" width="16" height="16" viewBox="0 0 16 16" shape-rendering="crispEdges">
<title>release icon</title>
<rect x="2" y="1" width="7" height="1" fill="#FFFFFF"/>
<rect x="1" y="2" width="9" height="1" fill="#FFFFFF"/>
<rect x="1" y="3" width="2" height="1" fill="#FFFFFF"/>
<rect x="5" y="3" width="6" height="1" fill="#FFFFFF"/>
<rect x="1" y="4" width="2" height="1" fill="#FFFFFF"/>
<rect x="5" y="4" width="7" height="1" fill="#FFFFFF"/>
<rect x="1" y="5" width="12" height="1" fill="#FFFFFF"/>
<rect x="1" y="6" width="13" height="1" fill="#FFFFFF"/>
<rect x="1" y="7" width="14" height="1" fill="#FFFFFF"/>
<rect x="2" y="8" width="13" height="1" fill="#FFFFFF"/>
<rect x="3" y="9" width="11" height="1" fill="#FFFFFF"/>
<rect x="4" y="10" width="9" height="1" fill="#FFFFFF"/>
<rect x="5" y="11" width="7" height="1" fill="#FFFFFF"/>
<rect x="6" y="12" width="5" height="1" fill="#FFFFFF"/>
<rect x="7" y="13" width="3" height="1" fill="#FFFFFF"/>
<rect x="8" y="14" width="1" height="1" fill="#FFFFFF"/>
</svg>
