<svg xmlns="http://www.w3.org/2000/svg" width="16" height="16" viewBox="0 0 16 16" shape-rendering="crispEdges">
<title>star icon</title>
<rect x="7" y="1" width="2" height="1" fill="#FFFFFF"/>
<rect x="7" y="2" width="2" height="1" fill="#FFFFFF"/>
<rect x="6" y="3" width="4" height="1" fill="#FFFFFF"/>
<rect x="6" y="4" width="4" height="1" fill="#FFFFFF"/>
<rect x="1" y="5" width="14" height="1" fill="#FFFFFF"/>
<rect x="2" y="6" width="12" height="1" fill="#FFFFFF"/>
<rect x="3" y="7" width="10" height="1" fill="#FFFFFF"/>
<rect x="4" y="8" width="8" height="1" fill="#FFFFFF"/>
<rect x="4" y="9" width="8" height="1" fill="#FFFFFF"/>
<rect x="3" y="10" width="10" height="1" fill="#FFFFFF"/>
<rect x="3" y="11" width="4" height="1" fill="#FFFFFF"/>
<rect x="9" y="11" width="4" height="1" fill="#FFFFFF"/>
<rect x="3" y="12" width="3" height="1" fill="#FFFFFF"/>
<rect x="10" y="12" width="3" height="1" fill="#FFFFFF"/>
<rect x="3" y="13" width="2" height="1" fill="#FFFFFF"/>
<rect x="11" y="13" width="2" height="1" fill="#FFFFFF"/>
</svg>
